<?xml version="1.0" standalone="no"?>
<!DOCTYPE svg PUBLIC "-//W3C//DTD SVG 1.1//EN" "http://www.w3.org/Graphics/SVG/1.1/DTD/svg11.dtd" >
<svg xmlns="http://www.w3.org/2000/svg" xmlns:xlink="http://www.w3.org/1999/xlink" version="1.1">
<metadata>
Created by FontForge 20170731 at Mon Nov 20 17:19:28 2023
 By Aleksey,,,
Copyright SHR16 Local Account 2020
</metadata>
<defs>
<font id="PokmonFireRed&#38;LeafGreenFontRecreation" horiz-adv-x="2867" >
  <font-face 
    font-family="Poke'mon FireRed &#38; LeafGreen Font Recreation"
    font-weight="400"
    font-stretch="normal"
    units-per-em="2048"
    panose-1="0 0 4 0 0 0 0 0 0 0"
    ascent="1638"
    descent="-410"
    x-height="2458"
    cap-height="3686"
    bbox="0 -819 7373 5325"
    underline-thickness="204"
    underline-position="205"
    unicode-range="U+0020-FB04"
  />
<missing-glyph horiz-adv-x="3244" 
d="M2693 102h-2552l1276 1702zM102 141v3404l1276 -1702zM2734 141l-1276 1702l1276 1702v-3404zM1417 1882l-1276 1702h2552zM0 0h2836v3686h-2836v-3686z" />
    <glyph glyph-name=".notdef" horiz-adv-x="3244" 
d="M2693 102h-2552l1276 1702zM102 141v3404l1276 -1702zM2734 141l-1276 1702l1276 1702v-3404zM1417 1882l-1276 1702h2552zM0 0h2836v3686h-2836v-3686z" />
    <glyph glyph-name=".null" horiz-adv-x="0" 
 />
    <glyph glyph-name="nonmarkingreturn" horiz-adv-x="682" 
 />
    <glyph glyph-name="space" unicode=" " horiz-adv-x="1024" 
 />
    <glyph glyph-name="exclam" unicode="!" horiz-adv-x="2048" 
d="M1638 410h410v819h-410v-819zM1638 1638h410v2868h-410v-2868z" />
    <glyph glyph-name="quotedbl" unicode="&#x22;" 
d="M0 3277h410v409h-410v-409zM1229 3277h409v409h-409v-409zM410 3686h409v1229h-819v-819h410v-410zM1638 3686h410v1229h-819v-819h409v-410z" />
    <glyph glyph-name="numbersign" unicode="#" horiz-adv-x="3686" 
d="M2458 410h409v2457h-409v-1229h-410v-819h410v-409zM1229 410h409v1228h410v820h-410v2867h-409v-410h-819v410h-410v-3277h410v2458h819v-4096z" />
    <glyph glyph-name="dollar" unicode="$" 
d="M1638 2867h410v1229h-410v-1229zM410 410h409v409h1229v410h-1229v409h1229v410h-1229v410h819v409h-819v1229h819v410h-1228v-2458h-410v-410h410v-409h-410v-410h410v-409z" />
    <glyph glyph-name="percent" unicode="%" horiz-adv-x="3686" 
d="M410 410h409v819h-409v-819zM2458 819h-410v819h410v-819zM819 1229h410v819h-410v-819zM1638 410h1229v1638h-1229v-1638zM1229 2048h409v819h-409v-819zM1638 2867h410v819h-410v-819zM819 3277h-409v819h409v-819zM0 2867h1229v1639h-1229v-1639zM2048 3686h410v820
h-410v-820z" />
    <glyph glyph-name="ampersand" unicode="&#x26;" 
d="M410 410h819v409h-819v-409zM1638 410h410v409h-410v-409zM0 819h410v819h-410v-819zM410 1638h409v410h-409v-410zM1229 819h409v1229h-409v-1229zM1638 2048h410v410h-410v-410zM819 2048h410v819h-410v-819zM410 2867h409v819h-409v-819zM1229 2867h409v819h-409v-819
zM819 3686h410v410h-410v-410z" />
    <glyph glyph-name="quotesingle" unicode="'" horiz-adv-x="1638" 
d="M0 3277h410v409h-410v-409zM410 3686h409v1229h-819v-819h410v-410z" />
    <glyph glyph-name="parenleft" unicode="(" horiz-adv-x="1638" 
d="M410 410h409v409h-409v-409zM0 819h410v2867h-410v-2867zM410 3686h409v410h-409v-410z" />
    <glyph glyph-name="parenright" unicode=")" horiz-adv-x="1638" 
d="M0 410h410v409h-410v-409zM410 819h409v2867h-409v-2867zM0 3686h410v410h-410v-410z" />
    <glyph glyph-name="asterisk" unicode="*" horiz-adv-x="3686" 
d="M2458 0h409v1638h-409v-1638zM1638 0h410v1638h410v410h-410v1229h-410v-3277zM2458 2048h409v1229h-409v-1229zM819 4096h-409v819h409v-819zM0 2048h410v1638h819v1639h-1229v-3277z" />
    <glyph glyph-name="plus" unicode="+" 
d="M819 819h410v819h819v410h-819v819h-410v-819h-819v-410h819v-819z" />
    <glyph glyph-name="comma" unicode="," horiz-adv-x="1638" 
d="M0 -410h410v410h-410v-410zM410 0h409v1229h-819v-819h410v-410z" />
    <glyph glyph-name="hyphen" unicode="-" 
d="M0 1638h2048v410h-2048v-410z" />
    <glyph glyph-name="period" unicode="." horiz-adv-x="1638" 
d="M0 410h819v819h-819v-819z" />
    <glyph glyph-name="slash" unicode="/" 
d="M0 410h410v819h-410v-819zM410 1229h409v819h-409v-819zM819 2048h410v819h-410v-819zM1229 2867h409v819h-409v-819zM1638 3686h410v820h-410v-820z" />
    <glyph glyph-name="zero" unicode="0" 
d="M410 410h1228v409h-1228v-409zM0 819h410v2867h-410v-2867zM1638 819h410v2867h-410v-2867zM410 3686h1228v410h-1228v-410z" />
    <glyph glyph-name="one" unicode="1" horiz-adv-x="2048" 
d="M0 410h1229v409h-410v3277h-409v-410h-410v-409h410v-2458h-410v-409z" />
    <glyph glyph-name="two" unicode="2" 
d="M0 410h2048v409h-1638v410h-410v-819zM410 1229h409v409h-409v-409zM819 1638h410v410h-410v-410zM1229 2048h409v410h-409v-410zM0 2867h410v819h-410v-819zM1638 2458h410v1228h-410v-1228zM410 3686h1228v410h-1228v-410z" />
    <glyph glyph-name="three" unicode="3" 
d="M410 410h1228v409h-1228v-409zM0 819h410v410h-410v-410zM1638 819h410v1229h-410v-1229zM819 2048h819v410h-819v-410zM0 3277h410v409h-410v-409zM1638 2458h410v1228h-410v-1228zM410 3686h1228v410h-1228v-410z" />
    <glyph glyph-name="four" unicode="4" 
d="M410 2867h409v819h-409v-819zM1229 410h409v819h410v409h-410v2458h-819v-410h410v-2048h-819v1229h-410v-1638h1229v-819z" />
    <glyph glyph-name="five" unicode="5" 
d="M410 410h1228v409h-1228v-409zM0 819h410v410h-410v-410zM1638 819h410v1229h-410v-1229zM0 2048h1638v410h-1228v1228h1638v410h-2048v-2048z" />
    <glyph glyph-name="six" unicode="6" 
d="M410 410h1228v409h-1228v-409zM1638 819h410v1229h-410v-1229zM0 819h410v1229h1228v410h-1228v1228h-410v-2867zM1638 3277h410v409h-410v-409zM410 3686h1228v410h-1228v-410z" />
    <glyph glyph-name="seven" unicode="7" 
d="M819 410h410v1228h-410v-1228zM1229 1638h409v820h-409v-820zM1638 2458h410v1638h-2048v-410h1638v-1228z" />
    <glyph glyph-name="eight" unicode="8" 
d="M410 410h1228v409h-1228v-409zM0 819h410v1229h-410v-1229zM1638 819h410v1229h-410v-1229zM410 2048h1228v410h-1228v-410zM0 2458h410v1228h-410v-1228zM1638 2458h410v1228h-410v-1228zM410 3686h1228v410h-1228v-410z" />
    <glyph glyph-name="nine" unicode="9" 
d="M410 410h1228v409h-1228v-409zM0 819h410v410h-410v-410zM0 2458h410v1228h-410v-1228zM1638 819h410v2867h-410v-1228h-1228v-410h1228v-1229zM410 3686h1228v410h-1228v-410z" />
    <glyph glyph-name="colon" unicode=":" horiz-adv-x="1638" 
d="M0 410h819v819h-819v-819zM0 2048h819v819h-819v-819z" />
    <glyph glyph-name="semicolon" unicode=";" horiz-adv-x="1638" 
d="M0 -410h410v410h-410v-410zM410 0h409v1229h-819v-819h410v-410zM0 2048h819v819h-819v-819z" />
    <glyph glyph-name="less" unicode="&#x3c;" 
d="M1638 410h410v409h-410v-409zM1229 819h409v410h-409v-410zM819 1229h410v409h-410v-409zM410 1638h409v410h-409v-410zM0 2048h410v819h-410v-819zM410 2867h409v410h-409v-410zM819 3277h410v409h-410v-409zM1229 3686h409v410h-409v-410zM1638 4096h410v410h-410v-410
z" />
    <glyph glyph-name="equal" unicode="=" 
d="M0 1229h2048v409h-2048v-409zM0 2048h2048v410h-2048v-410z" />
    <glyph glyph-name="greater" unicode="&#x3e;" 
d="M0 410h410v409h-410v-409zM410 819h409v410h-409v-410zM819 1229h410v409h-410v-409zM1229 1638h409v410h-409v-410zM1638 2048h410v819h-410v-819zM1229 2867h409v410h-409v-410zM819 3277h410v409h-410v-409zM410 3686h409v410h-409v-410zM0 4096h410v410h-410v-410z
" />
    <glyph glyph-name="question" unicode="?" 
d="M819 410h410v819h-410v-819zM819 1638h410v820h409v409h-819v-1229zM0 3277h410v819h-410v-819zM1638 2867h410v1229h-410v-1229zM410 4096h1228v410h-1228v-410z" />
    <glyph glyph-name="at" unicode="@" horiz-adv-x="4505" 
d="M2458 410h409v409h-409v-409zM2048 819h410v819h-410v-819zM2867 819h410v819h-410v-819zM1638 1638h410v820h-410v-820zM3277 1638h409v820h-409v-820zM0 410h1229v409h-819v3687h-410v-4096z" />
    <glyph glyph-name="A" unicode="A" 
d="M0 410h410v1228h1228v-1228h410v2867h-410v-1229h-1228v1229h-410v-2867zM410 3277h1228v409h-1228v-409z" />
    <glyph glyph-name="B" unicode="B" 
d="M1638 819h410v1229h-410v-1229zM1638 2458h410v819h-410v-819zM0 410h1638v409h-1228v1229h1228v410h-1228v819h1228v409h-1638v-3276z" />
    <glyph glyph-name="C" unicode="C" 
d="M410 410h1228v409h-1228v-409zM1638 819h410v410h-410v-410zM0 819h410v2458h-410v-2458zM1638 2867h410v410h-410v-410zM410 3277h1228v409h-1228v-409z" />
    <glyph glyph-name="D" unicode="D" 
d="M1638 819h410v2458h-410v-2458zM0 410h1638v409h-1228v2458h1228v409h-1638v-3276z" />
    <glyph glyph-name="E" unicode="E" 
d="M0 410h2048v409h-1638v1229h1228v410h-1228v819h1638v409h-2048v-3276z" />
    <glyph glyph-name="F" unicode="F" 
d="M0 410h410v1638h1228v410h-1228v819h1638v409h-2048v-3276z" />
    <glyph glyph-name="G" unicode="G" 
d="M410 410h1228v409h-1228v-409zM1638 819h410v1229h-819v-410h409v-819zM0 819h410v2458h-410v-2458zM1638 2458h410v819h-410v-819zM410 3277h1228v409h-1228v-409z" />
    <glyph glyph-name="H" unicode="H" 
d="M0 410h410v1638h1228v-1638h410v3276h-410v-1228h-1228v1228h-410v-3276z" />
    <glyph glyph-name="I" unicode="I" 
d="M0 410h2048v409h-819v2458h819v409h-2048v-409h819v-2458h-819v-409z" />
    <glyph glyph-name="J" unicode="J" 
d="M410 410h1228v409h-1228v-409zM0 819h410v410h-410v-410zM1638 819h410v2867h-410v-2867z" />
    <glyph glyph-name="K" unicode="K" 
d="M1638 410h410v409h-410v-409zM1229 819h409v410h-409v-410zM819 1229h410v409h-410v-409zM819 2458h410v409h-410v-409zM1229 2867h409v410h-409v-410zM0 410h410v1228h409v820h-409v1228h-410v-3276zM1638 3277h410v409h-410v-409z" />
    <glyph glyph-name="L" unicode="L" 
d="M0 410h2048v409h-1638v2867h-410v-3276z" />
    <glyph glyph-name="M" unicode="M" 
d="M819 1638h410v820h-410v-820zM0 410h410v2048h409v819h-409v409h-410v-3276zM1638 410h410v3276h-410v-409h-409v-819h409v-2048z" />
    <glyph glyph-name="N" unicode="N" 
d="M819 2048h410v410h-410v-410zM0 410h410v2048h409v819h-409v409h-410v-3276zM1638 410h410v3276h-410v-1638h-409v-819h409v-819z" />
    <glyph glyph-name="O" unicode="O" 
d="M410 410h1228v409h-1228v-409zM0 819h410v2458h-410v-2458zM1638 819h410v2458h-410v-2458zM410 3277h1228v409h-1228v-409z" />
    <glyph glyph-name="P" unicode="P" 
d="M1638 2048h410v1229h-410v-1229zM0 410h410v1228h1228v410h-1228v1229h1228v409h-1638v-3276z" />
    <glyph glyph-name="Q" unicode="Q" horiz-adv-x="3276" 
d="M2048 410h410v409h-410v-409zM0 819h410v410h819v409h-819v1639h-410v-2458zM410 410h1228v409h410v2458h-410v-2048h-409v-410h-819v-409zM410 3277h1228v409h-1228v-409z" />
    <glyph glyph-name="R" unicode="R" 
d="M1638 410h410v819h-410v-819zM1638 2048h410v1229h-410v-1229zM0 410h410v1228h819v-409h409v819h-1228v1229h1228v409h-1638v-3276z" />
    <glyph glyph-name="S" unicode="S" 
d="M410 410h1228v409h-1228v-409zM0 819h410v410h-410v-410zM1638 819h410v819h-410v-819zM1229 1638h409v410h-409v-410zM410 2048h819v410h-819v-410zM0 2458h410v819h-410v-819zM1638 2867h410v410h-410v-410zM410 3277h1228v409h-1228v-409z" />
    <glyph glyph-name="T" unicode="T" 
d="M819 410h410v2867h819v409h-2048v-409h819v-2867z" />
    <glyph glyph-name="U" unicode="U" 
d="M410 410h1228v409h-1228v-409zM0 819h410v2867h-410v-2867zM1638 819h410v2867h-410v-2867z" />
    <glyph glyph-name="V" unicode="V" 
d="M819 410h410v819h-410v-819zM410 1229h409v819h-409v-819zM1229 1229h409v819h-409v-819zM0 2048h410v1638h-410v-1638zM1638 2048h410v1638h-410v-1638z" />
    <glyph glyph-name="W" unicode="W" 
d="M819 1638h410v1229h-410v-1229zM0 410h410v409h409v819h-409v2048h-410v-3276zM1638 410h410v3276h-410v-2048h-409v-819h409v-409z" />
    <glyph glyph-name="X" unicode="X" 
d="M0 410h410v819h-410v-819zM1638 410h410v819h-410v-819zM410 1229h409v409h-409v-409zM1229 1229h409v409h-409v-409zM819 1638h410v820h-410v-820zM410 2458h409v409h-409v-409zM1229 2458h409v409h-409v-409zM0 2867h410v819h-410v-819zM1638 2867h410v819h-410v-819z
" />
    <glyph glyph-name="Y" unicode="Y" 
d="M819 410h410v1638h-410v-1638zM410 2048h409v819h-409v-819zM1229 2048h409v819h-409v-819zM0 2867h410v819h-410v-819zM1638 2867h410v819h-410v-819z" />
    <glyph glyph-name="Z" unicode="Z" 
d="M0 410h2048v409h-1638v410h-410v-819zM410 1229h409v409h-409v-409zM819 1638h410v820h-410v-820zM1229 2458h409v409h-409v-409zM1638 2867h410v819h-2048v-409h1638v-410z" />
    <glyph glyph-name="bracketleft" unicode="[" 
d="M0 410h410v409h-410v-409zM819 410h410v409h-410v-409zM1638 410h410v409h-410v-409z" />
    <glyph glyph-name="backslash" unicode="\" 
d="M1638 410h410v819h-410v-819zM1229 1229h409v819h-409v-819zM819 2048h410v819h-410v-819zM410 2867h409v819h-409v-819zM0 3686h410v820h-410v-820z" />
    <glyph glyph-name="underscore" unicode="_" horiz-adv-x="3276" 
d="M0 410h2458v409h-2458v-409z" />
    <glyph glyph-name="a" unicode="a" 
d="M410 410h819v409h-819v-409zM0 819h410v1229h-410v-1229zM1638 410h410v2048h-1638v-410h1228v-819h-409v-410h409v-409z" />
    <glyph glyph-name="b" unicode="b" 
d="M1638 819h410v1229h-410v-1229zM0 410h1638v409h-1228v1229h1228v410h-1228v1228h-410v-3276z" />
    <glyph glyph-name="c" unicode="c" 
d="M410 410h1228v409h-1228v-409zM1638 819h410v410h-410v-410zM0 819h410v1229h-410v-1229zM1638 1638h410v410h-410v-410zM410 2048h1228v410h-1228v-410z" />
    <glyph glyph-name="d" unicode="d" 
d="M0 819h410v1229h-410v-1229zM410 410h1638v3276h-410v-1228h-1228v-410h1228v-1229h-1228v-409z" />
    <glyph glyph-name="e" unicode="e" 
d="M410 410h1638v409h-1638v-409zM0 819h410v410h1638v819h-410v-410h-1228v410h-410v-1229zM410 2048h1228v410h-1228v-410z" />
    <glyph glyph-name="f" unicode="f" horiz-adv-x="2457" 
d="M410 410h409v1638h819v410h-819v819h-409v-819h-410v-410h410v-1638zM819 3277h819v409h-819v-409z" />
    <glyph glyph-name="g" unicode="g" 
d="M410 -410h1228v410h-1228v-410zM0 819h410v1229h-410v-1229zM1638 0h410v2048h-410v-1229h-1228v-409h1228v-410zM410 2048h1228v410h-1228v-410z" />
    <glyph glyph-name="h" unicode="h" 
d="M1638 410h410v1638h-410v-1638zM0 410h410v1638h1228v410h-1228v1228h-410v-3276z" />
    <glyph glyph-name="i" unicode="i" horiz-adv-x="1228" 
d="M0 410h410v2048h-410v-2048zM0 2867h410v410h-410v-410z" />
    <glyph glyph-name="j" unicode="j" horiz-adv-x="2457" 
d="M410 -410h819v410h-819v-410zM0 0h410v819h-410v-819zM1229 0h409v2458h-409v-2458zM1229 2867h409v410h-409v-410z" />
    <glyph glyph-name="k" unicode="k" horiz-adv-x="2457" 
d="M1229 410h409v409h-409v-409zM819 819h410v410h-410v-410zM819 1638h410v410h-410v-410zM1229 2048h409v410h-409v-410zM0 410h410v819h409v409h-409v2048h-410v-3276z" />
    <glyph glyph-name="l" unicode="l" horiz-adv-x="1638" 
d="M410 410h409v3276h-819v-409h410v-2867z" />
    <glyph glyph-name="m" unicode="m" 
d="M1638 410h410v1638h-410v-1638zM0 410h410v1638h409v-1638h410v1638h409v410h-1638v-2048z" />
    <glyph glyph-name="n" unicode="n" horiz-adv-x="2457" 
d="M1229 410h409v1638h-409v-1638zM0 410h410v1638h819v410h-1229v-2048z" />
    <glyph glyph-name="o" unicode="o" 
d="M410 410h1228v409h-1228v-409zM0 819h410v1229h-410v-1229zM1638 819h410v1229h-410v-1229zM410 2048h1228v410h-1228v-410z" />
    <glyph glyph-name="p" unicode="p" 
d="M1638 819h410v1229h-410v-1229zM0 -410h410v820h1228v409h-1228v1229h1228v410h-1638v-2868z" />
    <glyph glyph-name="q" unicode="q" 
d="M0 819h410v1229h-410v-1229zM1638 -410h410v2868h-1638v-410h1228v-1229h-1228v-409h1228v-820z" />
    <glyph glyph-name="r" unicode="r" horiz-adv-x="2457" 
d="M0 410h410v1228h409v410h-409v410h-410v-2048zM819 2048h819v410h-819v-410z" />
    <glyph glyph-name="s" unicode="s" horiz-adv-x="2457" 
d="M0 410h1638v819h-409v-410h-1229v-409zM410 1229h819v409h-819v-409zM0 1638h410v410h1228v410h-1638v-820z" />
    <glyph glyph-name="t" unicode="t" horiz-adv-x="2457" 
d="M410 410h1228v409h-819v1229h819v410h-819v819h-409v-819h-410v-410h410v-1638z" />
    <glyph glyph-name="u" unicode="u" 
d="M410 410h819v409h-819v-409zM1638 410h410v409h-410v-409zM0 819h410v1639h-410v-1639zM1229 819h409v1639h-409v-1639z" />
    <glyph glyph-name="v" unicode="v" 
d="M819 410h410v409h-410v-409zM410 819h409v819h-409v-819zM1229 819h409v819h-409v-819zM0 1638h410v820h-410v-820zM1638 1638h410v820h-410v-820z" />
    <glyph glyph-name="w" unicode="w" 
d="M410 410h409v409h-409v-409zM1229 410h409v409h-409v-409zM0 819h410v1639h-410v-1639zM819 819h410v1639h-410v-1639zM1638 819h410v1639h-410v-1639z" />
    <glyph glyph-name="x" unicode="x" 
d="M0 410h410v409h-410v-409zM1638 410h410v409h-410v-409zM410 819h409v410h-409v-410zM1229 819h409v410h-409v-410zM819 1229h410v409h-410v-409zM410 1638h409v410h-409v-410zM1229 1638h409v410h-409v-410zM0 2048h410v410h-410v-410zM1638 2048h410v410h-410v-410z
" />
    <glyph glyph-name="y" unicode="y" 
d="M0 -410h1638v410h-1638v-410zM0 819h410v1639h-410v-1639zM1638 0h410v2458h-410v-1639h-1228v-409h1228v-410z" />
    <glyph glyph-name="z" unicode="z" 
d="M0 410h2048v409h-1229v410h-409v-410h-410v-409zM819 1229h410v409h-410v-409zM1229 1638h409v410h410v410h-2048v-410h1229v-410z" />
    <glyph glyph-name="exclamdown" unicode="&#xa1;" horiz-adv-x="2048" 
d="M1638 410h410v2867h-410v-2867zM1638 3686h410v820h-410v-820z" />
    <glyph glyph-name="currency" unicode="&#xa4;" horiz-adv-x="3686" 
d="M0 410h410v409h-410v-409zM2458 410h409v409h-409v-409zM410 819h409v410h-409v-410zM2048 819h410v410h-410v-410zM1638 1638h-409v410h409v-410zM819 1229h1229v1229h-1229v-1229zM410 2458h409v409h-409v-409zM2048 2458h410v409h-410v-409zM0 2867h410v410h-410v-410
zM2458 2867h409v410h-409v-410z" />
    <glyph glyph-name="brokenbar" unicode="&#xa6;" horiz-adv-x="2457" 
d="M2458 410h409v1228h-409v-1228zM2458 2048h409v1229h-409v-1229z" />
    <glyph glyph-name="section" unicode="&#xa7;" horiz-adv-x="3276" 
d="M410 410h1638v409h-1638v-409zM0 819h410v410h-410v-410zM819 2048h819v410h-819v-410zM2048 819h410v1639h-410v-410h-410v-410h410v-819zM1638 2458h410v409h-410v-409zM410 2458h409v409h819v410h-819v409h-409v-1228zM2048 3277h410v409h-410v-409zM819 3686h1229
v410h-1229v-410z" />
    <glyph glyph-name="dieresis" unicode="&#xa8;" 
d="M0 2458h410v409h-410v-409zM1638 2458h410v409h-410v-409z" />
    <glyph glyph-name="copyright" unicode="&#xa9;" horiz-adv-x="3686" 
d="M410 410h2048v409h-2048v-409zM819 1229h1229v409h-819v410h819v410h-1229v-1229zM0 819h410v2048h-410v-2048zM2458 819h409v2048h-409v-2048zM410 2867h2048v410h-2048v-410z" />
    <glyph glyph-name="ordfeminine" unicode="&#xaa;" 
d="M410 1229h819v409h-819v-409zM0 1638h410v1229h-410v-1229zM1638 1229h410v2048h-1638v-410h1228v-819h-409v-410h409v-409z" />
    <glyph glyph-name="guillemotleft" unicode="&#xab;" horiz-adv-x="4096" 
d="M2458 1229h409v409h-409v-409zM3686 1229h410v409h-410v-409zM2048 1638h410v410h-410v-410zM3277 1638h409v410h-409v-410zM1638 2048h410v410h-410v-410zM2867 2048h410v410h-410v-410zM2048 2458h410v409h-410v-409zM3277 2458h409v409h-409v-409zM2458 2867h409v410
h-409v-410zM3686 2867h410v410h-410v-410z" />
    <glyph glyph-name="logicalnot" unicode="&#xac;" horiz-adv-x="3276" 
d="M2867 2048h410v819h-1639v-409h1229v-410z" />
    <glyph glyph-name="uniAD" unicode="&#xad;" horiz-adv-x="3276" 
d="M1638 2048h1639v410h-1639v-410z" />
    <glyph glyph-name="registered" unicode="&#xae;" horiz-adv-x="3686" 
d="M410 410h2048v409h-2048v-409zM819 1229h410v409h409v-409h410v819h-410v410h-819v-1229zM0 819h410v2048h-410v-2048zM2458 819h409v2048h-409v-2048zM410 2867h2048v410h-2048v-410z" />
    <glyph glyph-name="macron" unicode="&#xaf;" horiz-adv-x="3276" 
d="M1638 3277h1639v409h-1639v-409z" />
    <glyph glyph-name="degree" unicode="&#xb0;" horiz-adv-x="3276" 
d="M2867 2458h410v409h-410v-409zM2458 2867h409v410h-409v-410zM3277 2867h409v410h-409v-410zM2867 3277h410v409h-410v-409z" />
    <glyph glyph-name="plusminus" unicode="&#xb1;" 
d="M0 819h2048v410h-2048v-410zM819 1638h410v820h819v409h-819v819h-410v-819h-819v-409h819v-820z" />
    <glyph glyph-name="uniB2" unicode="&#xb2;" horiz-adv-x="3686" 
d="M2458 2048h1638v410h-410v409h-409v-409h-819v-410zM2458 2867h409v410h-409v-410zM3686 2867h410v410h-410v-410zM2867 3277h819v409h-819v-409z" />
    <glyph glyph-name="uniB3" unicode="&#xb3;" horiz-adv-x="3686" 
d="M2458 2048h1638v410h-410v409h-819v-409h-409v-410zM2458 2867h409v410h-409v-410zM3686 2867h410v410h-410v-410zM2867 3277h819v409h-819v-409z" />
    <glyph glyph-name="acute" unicode="&#xb4;" horiz-adv-x="3276" 
d="M2458 2867h409v410h-409v-410zM2867 3277h819v409h-819v-409z" />
    <glyph glyph-name="mu" unicode="&#xb5;" horiz-adv-x="4096" 
d="M3277 2458h819v409h-819v-409zM2458 2458h409v409h410v410h-410v819h-409v-1638zM4096 2867h410v1229h-410v-1229z" />
    <glyph glyph-name="paragraph" unicode="&#xb6;" horiz-adv-x="4505" 
d="M3686 0h410v2867h410v-2867h409v3277h-2048v-410h-409v-819h409v-410h819v-1638z" />
    <glyph glyph-name="periodcentered" unicode="&#xb7;" horiz-adv-x="3686" 
d="M4096 2048h819v819h-819v-819z" />
    <glyph glyph-name="cedilla" unicode="&#xb8;" horiz-adv-x="4915" 
d="M6554 -410h409v410h-409v-410zM6963 0h410v819h-819v-409h409v-410z" />
    <glyph glyph-name="uniB9" unicode="&#xb9;" 
d="M2867 2048h410v1638h-410v-409h-409v-410h409v-819z" />
    <glyph glyph-name="ordmasculine" unicode="&#xba;" horiz-adv-x="3686" 
d="M2867 2048h819v410h-819v-410zM2458 2458h409v819h-409v-819zM3686 2458h410v819h-410v-819zM2867 3277h819v409h-819v-409z" />
    <glyph glyph-name="guillemotright" unicode="&#xbb;" horiz-adv-x="4096" 
d="M1638 1229h410v409h-410v-409zM2867 1229h410v409h-410v-409zM2048 1638h410v410h-410v-410zM3277 1638h409v410h-409v-410zM2458 2048h409v410h-409v-410zM3686 2048h410v410h-410v-410zM2048 2458h410v409h-410v-409zM3277 2458h409v409h-409v-409zM1638 2867h410v410
h-410v-410zM2867 2867h410v410h-410v-410z" />
    <glyph glyph-name="questiondown" unicode="&#xbf;" 
d="M410 410h1228v409h-1228v-409zM0 819h410v1229h-410v-1229zM1638 819h410v1229h-410v-1229zM410 2048h819v1229h-410v-819h-409v-410zM819 3686h410v820h-410v-820z" />
    <glyph glyph-name="Agrave" unicode="&#xc0;" 
d="M0 410h410v1228h1228v-1228h410v2867h-410v-1229h-1228v1229h-410v-2867zM410 3277h1228v409h-1228v-409zM1229 4096h409v410h-409v-410zM410 4506h819v409h-819v-409z" />
    <glyph glyph-name="Aacute" unicode="&#xc1;" 
d="M0 410h410v1228h1228v-1228h410v2867h-410v-1229h-1228v1229h-410v-2867zM410 3277h1228v409h-1228v-409zM410 4096h409v410h-409v-410zM819 4506h819v409h-819v-409z" />
    <glyph glyph-name="Acircumflex" unicode="&#xc2;" 
d="M0 410h410v1228h1228v-1228h410v2867h-410v-1229h-1228v1229h-410v-2867zM410 3277h1228v409h-1228v-409zM410 4096h409v410h-409v-410zM1229 4096h409v410h-409v-410zM819 4506h410v409h-410v-409z" />
    <glyph glyph-name="Atilde" unicode="&#xc3;" horiz-adv-x="3276" 
d="M0 410h410v1228h1228v-1228h410v2867h-410v-1229h-1228v1229h-410v-2867zM410 3277h1228v409h-1228v-409zM0 4096h410v410h-410v-410zM1229 4096h819v410h-819v-410zM410 4506h819v409h-819v-409zM2048 4506h410v409h-410v-409z" />
    <glyph glyph-name="Adieresis" unicode="&#xc4;" 
d="M0 410h410v1228h1228v-1228h410v2867h-410v-1229h-1228v1229h-410v-2867zM410 3277h1228v409h-1228v-409zM0 4096h410v410h-410v-410zM1638 4096h410v410h-410v-410z" />
    <glyph glyph-name="Aring" unicode="&#xc5;" 
d="M0 410h410v1228h1228v-1228h410v2867h-410v-1229h-1228v1229h-410v-2867zM410 3277h1228v409h-1228v-409zM819 4096h410v410h-410v-410zM410 4506h409v409h-409v-409zM1229 4506h409v409h-409v-409zM819 4915h410v410h-410v-410z" />
    <glyph glyph-name="AE" unicode="&#xc6;" horiz-adv-x="4505" 
d="M0 410h410v1228h1228v-1228h2048v409h-1638v1229h1229v410h-1229v819h1638v409h-3276v-409h1228v-1229h-1228v1229h-410v-2867z" />
    <glyph glyph-name="Ccedilla" unicode="&#xc7;" 
d="M410 -819h819v409h-819v-409zM1229 -410h409v410h-409v-410zM819 0h410v410h819v819h-410v-410h-1228v-409h409v-410zM0 819h410v2458h-410v-2458zM1638 2867h410v410h-410v-410zM410 3277h1228v409h-1228v-409z" />
    <glyph glyph-name="Egrave" unicode="&#xc8;" 
d="M0 410h2048v409h-1638v1229h1228v410h-1228v819h1638v409h-2048v-3276zM1229 4096h409v410h-409v-410zM410 4506h819v409h-819v-409z" />
    <glyph glyph-name="Eacute" unicode="&#xc9;" 
d="M0 410h2048v409h-1638v1229h1228v410h-1228v819h1638v409h-2048v-3276zM410 4096h409v410h-409v-410zM819 4506h819v409h-819v-409z" />
    <glyph glyph-name="Ecircumflex" unicode="&#xca;" 
d="M0 410h2048v409h-1638v1229h1228v410h-1228v819h1638v409h-2048v-3276zM410 4096h409v410h-409v-410zM1229 4096h409v410h-409v-410zM819 4506h410v409h-410v-409z" />
    <glyph glyph-name="Edieresis" unicode="&#xcb;" 
d="M0 410h2048v409h-1638v1229h1228v410h-1228v819h1638v409h-2048v-3276zM0 4096h410v410h-410v-410zM1638 4096h410v410h-410v-410z" />
    <glyph glyph-name="Igrave" unicode="&#xcc;" 
d="M0 410h2048v409h-819v2458h819v409h-2048v-409h819v-2458h-819v-409zM1229 4096h409v410h-409v-410zM410 4506h819v409h-819v-409z" />
    <glyph glyph-name="Iacute" unicode="&#xcd;" 
d="M0 410h2048v409h-819v2458h819v409h-2048v-409h819v-2458h-819v-409zM410 4096h409v410h-409v-410zM819 4506h819v409h-819v-409z" />
    <glyph glyph-name="Icircumflex" unicode="&#xce;" 
d="M0 410h2048v409h-819v2458h819v409h-2048v-409h819v-2458h-819v-409zM410 4096h409v410h-409v-410zM1229 4096h409v410h-409v-410zM819 4506h410v409h-410v-409z" />
    <glyph glyph-name="Idieresis" unicode="&#xcf;" 
d="M0 410h2048v409h-819v2458h819v409h-2048v-409h819v-2458h-819v-409zM0 4096h410v410h-410v-410zM1638 4096h410v410h-410v-410z" />
    <glyph glyph-name="Eth" unicode="&#xd0;" horiz-adv-x="3686" 
d="M2458 819h409v2458h-409v-2458zM819 410h1639v409h-1229v819h409v410h-409v1229h1229v409h-1639v-1638h-819v-410h819v-1228z" />
    <glyph glyph-name="Ntilde" unicode="&#xd1;" horiz-adv-x="3276" 
d="M819 2048h410v410h-410v-410zM0 410h410v2048h409v819h-409v409h-410v-3276zM1638 410h410v3276h-410v-1638h-409v-819h409v-819zM0 4096h410v410h-410v-410zM1229 4096h819v410h-819v-410zM410 4506h819v409h-819v-409zM2048 4506h410v409h-410v-409z" />
    <glyph glyph-name="Ograve" unicode="&#xd2;" 
d="M410 410h1228v409h-1228v-409zM0 819h410v2458h-410v-2458zM1638 819h410v2458h-410v-2458zM410 3277h1228v409h-1228v-409zM1229 4096h409v410h-409v-410zM410 4506h819v409h-819v-409z" />
    <glyph glyph-name="Oacute" unicode="&#xd3;" 
d="M410 410h1228v409h-1228v-409zM0 819h410v2458h-410v-2458zM1638 819h410v2458h-410v-2458zM410 3277h1228v409h-1228v-409zM410 4096h409v410h-409v-410zM819 4506h819v409h-819v-409z" />
    <glyph glyph-name="Ocircumflex" unicode="&#xd4;" 
d="M410 410h1228v409h-1228v-409zM0 819h410v2458h-410v-2458zM1638 819h410v2458h-410v-2458zM410 3277h1228v409h-1228v-409zM410 4096h409v410h-409v-410zM1229 4096h409v410h-409v-410zM819 4506h410v409h-410v-409z" />
    <glyph glyph-name="Otilde" unicode="&#xd5;" 
d="M410 410h1228v409h-1228v-409zM0 819h410v2458h-410v-2458zM1638 819h410v2458h-410v-2458zM410 3277h1228v409h-1228v-409zM0 4096h410v410h-410v-410zM1229 4096h409v410h-409v-410zM410 4506h819v409h-819v-409zM1638 4506h410v409h-410v-409z" />
    <glyph glyph-name="Odieresis" unicode="&#xd6;" 
d="M410 410h1228v409h-1228v-409zM0 819h410v2458h-410v-2458zM1638 819h410v2458h-410v-2458zM410 3277h1228v409h-1228v-409zM0 4096h410v410h-410v-410zM1638 4096h410v410h-410v-410z" />
    <glyph glyph-name="multiply" unicode="&#xd7;" horiz-adv-x="3276" 
d="M0 410h410v409h-410v-409zM2048 410h410v409h-410v-409zM410 819h409v410h-409v-410zM1638 819h410v410h-410v-410zM819 1229h819v819h-819v-819zM410 2048h409v410h-409v-410zM1638 2048h410v410h-410v-410zM0 2458h410v409h-410v-409zM2048 2458h410v409h-410v-409z
" />
    <glyph glyph-name="Oslash" unicode="&#xd8;" horiz-adv-x="3686" 
d="M819 410h1229v409h-1229v-409zM1229 2048h409v410h-409v-410zM0 819h819v819h410v410h-410v1229h-409v-2048h-410v-410zM2048 819h410v2458h-410v-410h-410v-409h410v-1639zM819 3277h1229v409h-1229v-409zM2458 3277h409v409h-409v-409z" />
    <glyph glyph-name="Ugrave" unicode="&#xd9;" 
d="M410 410h1228v409h-1228v-409zM0 819h410v2867h-410v-2867zM1638 819h410v2867h-410v-2867zM1229 4096h409v410h-409v-410zM410 4506h819v409h-819v-409z" />
    <glyph glyph-name="Uacute" unicode="&#xda;" 
d="M410 410h1228v409h-1228v-409zM0 819h410v2867h-410v-2867zM1638 819h410v2867h-410v-2867zM410 4096h409v410h-409v-410zM819 4506h819v409h-819v-409z" />
    <glyph glyph-name="Ucircumflex" unicode="&#xdb;" 
d="M410 410h1228v409h-1228v-409zM0 819h410v2867h-410v-2867zM1638 819h410v2867h-410v-2867zM410 4096h409v410h-409v-410zM1229 4096h409v410h-409v-410zM819 4506h410v409h-410v-409z" />
    <glyph glyph-name="Udieresis" unicode="&#xdc;" 
d="M410 410h1228v409h-1228v-409zM0 819h410v2867h-410v-2867zM1638 819h410v2867h-410v-2867zM0 4096h410v410h-410v-410zM1638 4096h410v410h-410v-410z" />
    <glyph glyph-name="Yacute" unicode="&#xdd;" 
d="M819 410h410v1638h-410v-1638zM410 2048h409v819h-409v-819zM1229 2048h409v819h-409v-819zM0 2867h410v819h-410v-819zM1638 2867h410v819h-410v-819zM410 4096h409v410h-409v-410zM819 4506h819v409h-819v-409z" />
    <glyph glyph-name="Thorn" unicode="&#xde;" 
d="M1229 1229h409v409h-409v-409zM1638 1638h410v820h-410v-820zM1229 2458h409v409h-409v-409zM0 410h410v409h819v410h-819v1638h819v410h-819v409h-410v-3276z" />
    <glyph glyph-name="germandbls" unicode="&#xdf;" 
d="M1229 819h409v410h-409v-410zM1638 1229h410v409h-410v-409zM1229 1638h409v410h-409v-410zM1229 2458h409v819h-409v-819zM0 410h410v1638h819v410h-819v819h819v409h-1229v-3276z" />
    <glyph glyph-name="agrave" unicode="&#xe0;" 
d="M410 410h819v409h-819v-409zM0 819h410v1229h-410v-1229zM1638 410h410v2048h-1638v-410h1228v-819h-409v-410h409v-409zM1229 2867h409v410h-409v-410zM410 3277h819v409h-819v-409z" />
    <glyph glyph-name="aacute" unicode="&#xe1;" 
d="M410 410h819v409h-819v-409zM0 819h410v1229h-410v-1229zM1638 410h410v2048h-1638v-410h1228v-819h-409v-410h409v-409zM410 2867h409v410h-409v-410zM819 3277h819v409h-819v-409z" />
    <glyph glyph-name="acircumflex" unicode="&#xe2;" 
d="M410 410h819v409h-819v-409zM0 819h410v1229h-410v-1229zM1638 410h410v2048h-1638v-410h1228v-819h-409v-410h409v-409zM410 2867h409v410h-409v-410zM1229 2867h409v410h-409v-410zM819 3277h410v409h-410v-409z" />
    <glyph glyph-name="atilde" unicode="&#xe3;" horiz-adv-x="3276" 
d="M410 410h819v409h-819v-409zM0 819h410v1229h-410v-1229zM1638 410h410v2048h-1638v-410h1228v-819h-409v-410h409v-409zM0 2867h410v410h-410v-410zM1229 2867h819v410h-819v-410zM410 3277h819v409h-819v-409zM2048 3277h410v409h-410v-409z" />
    <glyph glyph-name="adieresis" unicode="&#xe4;" 
d="M410 410h819v409h-819v-409zM0 819h410v1229h-410v-1229zM1638 410h410v2048h-1638v-410h1228v-819h-409v-410h409v-409zM0 2867h410v410h-410v-410zM1638 2867h410v410h-410v-410z" />
    <glyph glyph-name="aring" unicode="&#xe5;" 
d="M410 410h819v409h-819v-409zM0 819h410v1229h-410v-1229zM1638 410h410v1638h-410v-819h-409v-410h409v-409zM410 2048h1228v410h-1228v-410zM819 2867h410v410h-410v-410zM410 3277h409v409h-409v-409zM1229 3277h409v409h-409v-409zM819 3686h410v410h-410v-410z" />
    <glyph glyph-name="ae" unicode="&#xe6;" horiz-adv-x="4505" 
d="M410 410h819v409h-819v-409zM0 819h410v1229h-410v-1229zM1638 410h2048v409h-1638v410h1229v409h-1229v410h-410v-819h-409v-410h409v-409zM3277 1638h409v410h-409v-410zM410 2048h1228v410h-1228v-410zM2048 2048h1229v410h-1229v-410z" />
    <glyph glyph-name="ccedilla" unicode="&#xe7;" 
d="M410 -410h819v410h-819v-410zM1229 0h409v410h-409v-410zM819 410h410v409h409v410h-1228v-410h409v-409zM1638 1229h410v409h-410v-409zM0 1229h410v1229h-410v-1229zM1638 2048h410v410h-410v-410zM410 2458h1228v409h-1228v-409z" />
    <glyph glyph-name="egrave" unicode="&#xe8;" 
d="M410 410h1638v409h-1638v-409zM0 819h410v410h1638v819h-410v-410h-1228v410h-410v-1229zM410 2048h1228v410h-1228v-410zM1229 2867h409v410h-409v-410zM410 3277h819v409h-819v-409z" />
    <glyph glyph-name="eacute" unicode="&#xe9;" 
d="M410 410h1638v409h-1638v-409zM0 819h410v410h1638v819h-410v-410h-1228v410h-410v-1229zM410 2048h1228v410h-1228v-410zM410 2867h409v410h-409v-410zM819 3277h819v409h-819v-409z" />
    <glyph glyph-name="ecircumflex" unicode="&#xea;" 
d="M410 410h1638v409h-1638v-409zM0 819h410v410h1638v819h-410v-410h-1228v410h-410v-1229zM410 2048h1228v410h-1228v-410zM410 2867h409v410h-409v-410zM1229 2867h409v410h-409v-410zM819 3277h410v409h-410v-409z" />
    <glyph glyph-name="edieresis" unicode="&#xeb;" 
d="M410 410h1638v409h-1638v-409zM0 819h410v410h1638v819h-410v-410h-1228v410h-410v-1229zM410 2048h1228v410h-1228v-410zM0 2867h410v410h-410v-410zM1638 2867h410v410h-410v-410z" />
    <glyph glyph-name="igrave" unicode="&#xec;" 
d="M2048 410h410v2048h-410v-2048zM2458 2867h409v410h-409v-410zM1638 3277h820v409h-820v-409z" />
    <glyph glyph-name="iacute" unicode="&#xed;" 
d="M2048 410h410v2048h-410v-2048zM1638 2867h410v410h-410v-410zM2048 3277h819v409h-819v-409z" />
    <glyph glyph-name="icircumflex" unicode="&#xee;" 
d="M2048 410h410v2048h-410v-2048zM1638 2867h410v410h-410v-410zM2458 2867h409v410h-409v-410zM2048 3277h410v409h-410v-409z" />
    <glyph glyph-name="idieresis" unicode="&#xef;" horiz-adv-x="3276" 
d="M1638 410h410v2048h-410v-2048zM819 2867h410v410h-410v-410zM2458 2867h409v410h-409v-410z" />
    <glyph glyph-name="eth" unicode="&#xf0;" 
d="M410 410h1228v409h-1228v-409zM0 819h410v1229h-410v-1229zM1638 819h410v2458h-410v-819h-1228v-410h1228v-1229zM410 2867h409v410h819v409h-409v410h-819v-410h-410v-409h410v-410z" />
    <glyph glyph-name="ntilde" unicode="&#xf1;" horiz-adv-x="3276" 
d="M1638 410h410v1638h-410v-1638zM410 410h409v1638h819v410h-1228v-2048zM0 2867h410v410h-410v-410zM1229 2867h819v410h-819v-410zM410 3277h819v409h-819v-409zM2048 3277h410v409h-410v-409z" />
    <glyph glyph-name="ograve" unicode="&#xf2;" 
d="M410 410h1228v409h-1228v-409zM0 819h410v1229h-410v-1229zM1638 819h410v1229h-410v-1229zM410 2048h1228v410h-1228v-410zM1229 2867h409v410h-409v-410zM410 3277h819v409h-819v-409z" />
    <glyph glyph-name="oacute" unicode="&#xf3;" 
d="M410 410h1228v409h-1228v-409zM0 819h410v1229h-410v-1229zM1638 819h410v1229h-410v-1229zM410 2048h1228v410h-1228v-410zM410 2867h409v410h-409v-410zM819 3277h819v409h-819v-409z" />
    <glyph glyph-name="ocircumflex" unicode="&#xf4;" 
d="M410 410h1228v409h-1228v-409zM0 819h410v1229h-410v-1229zM1638 819h410v1229h-410v-1229zM410 2048h1228v410h-1228v-410zM410 2867h409v410h-409v-410zM1229 2867h409v410h-409v-410zM819 3277h410v409h-410v-409z" />
    <glyph glyph-name="otilde" unicode="&#xf5;" horiz-adv-x="3276" 
d="M410 410h1228v409h-1228v-409zM0 819h410v1229h-410v-1229zM1638 819h410v1229h-410v-1229zM410 2048h1228v410h-1228v-410zM0 2867h410v410h-410v-410zM1229 2867h819v410h-819v-410zM410 3277h819v409h-819v-409zM2048 3277h410v409h-410v-409z" />
    <glyph glyph-name="odieresis" unicode="&#xf6;" 
d="M410 410h1228v409h-1228v-409zM0 819h410v1229h-410v-1229zM1638 819h410v1229h-410v-1229zM410 2048h1228v410h-1228v-410zM0 2867h410v410h-410v-410zM1638 2867h410v410h-410v-410z" />
    <glyph glyph-name="divide" unicode="&#xf7;" 
d="M819 819h410v410h-410v-410zM0 1638h2048v410h-2048v-410zM819 2458h410v409h-410v-409z" />
    <glyph glyph-name="oslash" unicode="&#xf8;" horiz-adv-x="3276" 
d="M0 410h410v409h-410v-409zM819 410h1229v409h-1229v-409zM410 819h409v410h410v409h-410v410h-409v-1229zM2048 819h410v1229h-410v-1229zM1229 1638h409v410h410v410h-1229v-410h410v-410zM2048 2458h410v409h-410v-409z" />
    <glyph glyph-name="ugrave" unicode="&#xf9;" horiz-adv-x="3276" 
d="M410 410h1228v409h-1228v-409zM2048 410h410v409h-410v-409zM0 819h410v1639h-410v-1639zM1638 819h410v1639h-410v-1639zM1229 2867h409v410h-409v-410zM410 3277h819v409h-819v-409z" />
    <glyph glyph-name="uacute" unicode="&#xfa;" horiz-adv-x="3276" 
d="M410 410h1228v409h-1228v-409zM2048 410h410v409h-410v-409zM0 819h410v1639h-410v-1639zM1638 819h410v1639h-410v-1639zM410 2867h409v410h-409v-410zM819 3277h819v409h-819v-409z" />
    <glyph glyph-name="ucircumflex" unicode="&#xfb;" horiz-adv-x="3276" 
d="M410 410h1228v409h-1228v-409zM2048 410h410v409h-410v-409zM0 819h410v1639h-410v-1639zM1638 819h410v1639h-410v-1639zM410 2867h409v410h-409v-410zM1229 2867h409v410h-409v-410zM819 3277h410v409h-410v-409z" />
    <glyph glyph-name="udieresis" unicode="&#xfc;" horiz-adv-x="3276" 
d="M410 410h1228v409h-1228v-409zM2048 410h410v409h-410v-409zM0 819h410v1639h-410v-1639zM1638 819h410v1639h-410v-1639zM0 2867h410v410h-410v-410zM1638 2867h410v410h-410v-410z" />
    <glyph glyph-name="yacute" unicode="&#xfd;" 
d="M0 -410h1638v410h-1638v-410zM0 819h410v1639h-410v-1639zM1638 0h410v2458h-410v-1639h-1228v-409h1228v-410zM410 2867h409v410h-409v-410zM819 3277h819v409h-819v-409z" />
    <glyph glyph-name="thorn" unicode="&#xfe;" horiz-adv-x="2457" 
d="M1229 1638h409v410h-409v-410zM0 410h410v819h819v409h-819v410h819v410h-819v819h-410v-2867z" />
    <glyph glyph-name="ydieresis" unicode="&#xff;" 
d="M0 -410h1638v410h-1638v-410zM0 819h410v1639h-410v-1639zM1638 0h410v2458h-410v-1639h-1228v-409h1228v-410zM0 2867h410v410h-410v-410zM1638 2867h410v410h-410v-410z" />
    <glyph glyph-name="Aogonek" unicode="&#x104;" 
d="M819 -819h819v409h-819v-409zM1638 -410h410v410h-410v-410zM1229 0h409v410h-409v-410zM0 410h410v1228h1228v-1228h410v2867h-410v-1229h-1228v1229h-410v-2867zM410 3277h1228v409h-1228v-409z" />
    <glyph glyph-name="aogonek" unicode="&#x105;" 
d="M819 -819h819v409h-819v-409zM1638 -410h410v410h-410v-410zM1229 0h409v410h-409v-410zM410 410h819v409h-819v-409zM0 819h410v1229h-410v-1229zM1638 410h410v2048h-1638v-410h1228v-819h-409v-410h409v-409z" />
    <glyph glyph-name="Cacute" unicode="&#x106;" 
d="M410 410h1228v409h-1228v-409zM1638 819h410v410h-410v-410zM0 819h410v2458h-410v-2458zM1638 2867h410v410h-410v-410zM410 3277h1228v409h-1228v-409zM410 4096h409v410h-409v-410zM819 4506h819v409h-819v-409z" />
    <glyph glyph-name="cacute" unicode="&#x107;" 
d="M410 410h1228v409h-1228v-409zM1638 819h410v410h-410v-410zM0 819h410v1229h-410v-1229zM1638 1638h410v410h-410v-410zM410 2048h1228v410h-1228v-410zM410 2867h409v410h-409v-410zM819 3277h819v409h-819v-409z" />
    <glyph glyph-name="Eogonek" unicode="&#x118;" 
d="M410 -819h819v409h-819v-409zM1229 -410h409v410h-409v-410zM819 0h410v410h819v409h-1638v1229h1228v410h-1228v819h1638v409h-2048v-3276h819v-410z" />
    <glyph glyph-name="eogonek" unicode="&#x119;" 
d="M819 -819h819v409h-819v-409zM1638 -410h410v410h-410v-410zM1229 0h409v410h410v409h-1638v-409h819v-410zM0 819h410v410h1638v819h-410v-410h-1228v410h-410v-1229zM410 2048h1228v410h-1228v-410z" />
    <glyph glyph-name="Lslash" unicode="&#x141;" horiz-adv-x="3276" 
d="M410 410h2048v409h-1639v1639h410v409h-410v819h-409v-1228h-410v-410h410v-1638z" />
    <glyph glyph-name="lslash" unicode="&#x142;" horiz-adv-x="2048" 
d="M410 410h409v2048h410v409h-410v819h-819v-409h410v-819h-410v-410h410v-1638z" />
    <glyph glyph-name="Nacute" unicode="&#x143;" 
d="M819 2048h410v410h-410v-410zM0 410h410v2048h409v819h-409v409h-410v-3276zM1638 410h410v3276h-410v-1638h-409v-819h409v-819zM410 4096h409v410h-409v-410zM819 4506h819v409h-819v-409z" />
    <glyph glyph-name="nacute" unicode="&#x144;" horiz-adv-x="2457" 
d="M1229 410h409v1228h-409v-1228zM0 410h410v1228h819v410h-1229v-1638zM0 2458h410v409h-410v-409zM410 2867h819v410h-819v-410z" />
    <glyph glyph-name="Sacute" unicode="&#x15a;" 
d="M410 410h1228v409h-1228v-409zM0 819h410v410h-410v-410zM1638 819h410v819h-410v-819zM1229 1638h409v410h-409v-410zM410 2048h819v410h-819v-410zM0 2458h410v819h-410v-819zM1638 2867h410v410h-410v-410zM410 3277h1228v409h-1228v-409zM410 4096h409v410h-409v-410
zM819 4506h819v409h-819v-409z" />
    <glyph glyph-name="sacute" unicode="&#x15b;" horiz-adv-x="2457" 
d="M0 410h1638v819h-409v-410h-1229v-409zM410 1229h819v409h-819v-409zM0 1638h410v410h1228v410h-1638v-820zM0 2867h410v410h-410v-410zM410 3277h819v409h-819v-409z" />
    <glyph glyph-name="Ydieresis" unicode="&#x178;" 
d="M819 410h410v1638h-410v-1638zM410 2048h409v819h-409v-819zM1229 2048h409v819h-409v-819zM0 2867h410v819h-410v-819zM1638 2867h410v819h-410v-819zM0 4096h410v410h-410v-410zM1638 4096h410v410h-410v-410z" />
    <glyph glyph-name="Zacute" unicode="&#x179;" 
d="M0 410h2048v409h-1638v410h-410v-819zM410 1229h409v409h-409v-409zM819 1638h410v820h-410v-820zM1229 2458h409v409h-409v-409zM1638 2867h410v819h-2048v-409h1638v-410zM410 4096h409v410h-409v-410zM819 4506h819v409h-819v-409z" />
    <glyph glyph-name="zacute" unicode="&#x17a;" 
d="M0 410h2048v409h-1229v410h-409v-410h-410v-409zM819 1229h410v409h-410v-409zM1229 1638h409v410h410v410h-2048v-410h1229v-410zM410 2867h409v410h-409v-410zM819 3277h819v409h-819v-409z" />
    <glyph glyph-name="Zdotaccent" unicode="&#x17b;" 
d="M0 410h2048v409h-1638v410h-410v-819zM410 1229h409v409h-409v-409zM819 1638h410v820h-410v-820zM1229 2458h409v409h-409v-409zM1638 2867h410v819h-2048v-409h1638v-410zM819 4096h410v410h-410v-410z" />
    <glyph glyph-name="zdotaccent" unicode="&#x17c;" 
d="M0 410h2048v409h-1229v410h-409v-410h-410v-409zM819 1229h410v409h-410v-409zM1229 1638h409v410h410v410h-2048v-410h1229v-410zM819 2867h410v410h-410v-410z" />
    <glyph glyph-name="emdash" unicode="&#x2014;" horiz-adv-x="4096" 
d="M3277 2867h1638v410h-1638v-410z" />
    <glyph glyph-name="quoteleft" unicode="&#x2018;" horiz-adv-x="1638" 
d="M0 3277h819v819h-409v410h-410v-1229zM410 4506h409v409h-409v-409z" />
    <glyph glyph-name="quoteright" unicode="&#x2019;" horiz-adv-x="1638" 
d="M0 3277h410v409h-410v-409zM410 3686h409v1229h-819v-819h410v-410z" />
    <glyph glyph-name="quotedblleft" unicode="&#x201c;" 
d="M0 3277h819v819h-409v410h-410v-1229zM1229 3277h819v819h-410v410h-409v-1229zM410 4506h409v409h-409v-409zM1638 4506h410v409h-410v-409z" />
    <glyph glyph-name="quotedblright" unicode="&#x201d;" 
d="M0 3277h410v409h-410v-409zM1229 3277h409v409h-409v-409zM410 3686h409v1229h-819v-819h410v-410zM1638 3686h410v1229h-819v-819h409v-410z" />
    <glyph glyph-name="bullet" unicode="&#x2022;" horiz-adv-x="3686" 
d="M3686 819h410v410h410v409h-410v410h-410v-410h-409v-409h409v-410z" />
    <glyph glyph-name="trademark" unicode="&#x2122;" horiz-adv-x="3276" 
d="M410 2048h409v819h410v-819h409v410h410v-410h410v1229h-410v-410h-410v410h-1638v-410h410v-819z" />
    <glyph glyph-name="uniFB00" unicode="&#xfb00;" horiz-adv-x="3276" 
d="M410 410h409v1638h410v-1638h409v1638h820v410h-820v819h820v409h-1639v-409h410v-819h-410v819h-409v-819h-410v-410h410v-1638z" />
    <glyph glyph-name="uniFB01" unicode="&#xfb01;" horiz-adv-x="2457" 
d="M410 410h409v1638h410v-1638h409v2048h-819v819h-409v-819h-410v-410h410v-1638zM819 3277h819v409h-819v-409z" />
    <glyph glyph-name="uniFB02" unicode="&#xfb02;" horiz-adv-x="2457" 
d="M410 410h409v1638h410v-1638h409v3276h-819v-409h410v-819h-410v819h-409v-819h-410v-410h410v-1638z" />
    <glyph glyph-name="uniFB03" unicode="&#xfb03;" horiz-adv-x="3276" 
d="M410 410h409v1638h410v-1638h409v1638h410v-1638h410v2048h-820v819h820v409h-1639v-409h410v-819h-410v819h-409v-819h-410v-410h410v-1638z" />
    <glyph glyph-name="uniFB04" unicode="&#xfb04;" horiz-adv-x="3276" 
d="M2048 2458h-410v819h410v-819zM410 410h409v1638h410v-1638h409v1638h410v-1638h410v3276h-1639v-409h410v-819h-410v819h-409v-819h-410v-410h410v-1638z" />
  </font>
</defs>
</svg>
